<svg
  viewBox="0 0 171.979 171.979"
  height="100"
  width="100"
  viewport="0 0 172 172"
>
  <defs>
    <linearGradient id="logo_svg__e">
      <stop offset="0" stop-color="#4f264f"></stop>
      <stop offset="1" stop-color="#bd77bd"></stop>
    </linearGradient>
    <linearGradient
      xlink:href="#logo_svg__a"
      id="logo_svg__g"
      gradientUnits="userSpaceOnUse"
      gradientTransform="matrix(.94245 0 0 .94245 37.2 12.113)"
      x1="145.657"
      y1="596.489"
      x2="496.151"
      y2="102.147"
    ></linearGradient>
    <linearGradient id="logo_svg__a">
      <stop offset="0" stop-color="#47e6af"></stop>
      <stop offset="0.515" stop-color="#526f6d"></stop>
      <stop offset="1" stop-color="#51023d"></stop>
    </linearGradient>
    <linearGradient
      xlink:href="#logo_svg__b"
      id="logo_svg__h"
      gradientUnits="userSpaceOnUse"
      gradientTransform="matrix(.94245 0 0 .94245 36.702 7.941)"
      x1="286.6"
      y1="16.674"
      x2="390.858"
      y2="554.19"
    ></linearGradient>
    <linearGradient id="logo_svg__b">
      <stop offset="0" stop-color="#f61b79"></stop>
      <stop offset="0.596" stop-color="#6fafc5"></stop>
      <stop offset="1" stop-color="#36efe6"></stop>
    </linearGradient>
    <linearGradient
      xlink:href="#logo_svg__c"
      id="logo_svg__i"
      gradientUnits="userSpaceOnUse"
      gradientTransform="matrix(.94245 0 0 .94245 33.299 9.052)"
      x1="306.67"
      y1="604.791"
      x2="615.785"
      y2="450.277"
    ></linearGradient>
    <linearGradient id="logo_svg__c">
      <stop offset="0" stop-color="#f04a48"></stop>
      <stop offset="1" stop-color="#fc952b" stop-opacity="0.992"></stop>
    </linearGradient>
    <linearGradient
      xlink:href="#logo_svg__d"
      id="logo_svg__j"
      gradientUnits="userSpaceOnUse"
      gradientTransform="matrix(.94245 0 0 .94245 33.06 12.113)"
      x1="33.255"
      y1="364.435"
      x2="426.884"
      y2="248.576"
    ></linearGradient>
    <linearGradient id="logo_svg__d">
      <stop offset="0" stop-color="#f61b79"></stop>
      <stop offset="0.357" stop-color="#cd1a6f"></stop>
      <stop offset="1" stop-color="#581a53"></stop>
    </linearGradient>
    <linearGradient
      gradientTransform="matrix(.94245 0 0 .94245 1777.143 1090.341)"
      gradientUnits="userSpaceOnUse"
      y2="-747.188"
      x2="-1513.658"
      y1="-1084.962"
      x1="-1391.388"
      id="logo_svg__f"
      xlink:href="#logo_svg__e"
    ></linearGradient>
  </defs>
  <path
    d="M108.866 86.068a16.103 16.103 0 01-16.103 16.102A16.103 16.103 0 0176.66 86.068a16.103 16.103 0 0116.103-16.103 16.103 16.103 0 0116.103 16.103"
    fill="#faad26"
  ></path>
  <path
    transform="scale(.26458)"
    d="M354.482 12.818C183.691 12.82 45.237 151.273 45.236 322.064c0 170.793 138.454 309.248 309.246 309.248 96.587-.004 187.625-45.135 246.106-122.005a97.201 97.201 0 0011.687-46.19c0-53.693-43.527-97.22-97.22-97.219a97.22 97.22 0 00-76.825 37.791c0-.02 0-.041-.01-.062a116.99 116.99 0 01-87.939 39.904c-64.613 0-116.994-52.379-116.994-116.992s52.381-116.992 116.994-116.992a116.992 116.992 0 0185.094 36.836 98 98 0 0079.513 40.793c54.124 0 98-43.877 98-98a98.004 98.004 0 00-23.617-63.744 43.798 43.798 0 00-3.285-4.295c-55.3-64.118-136.224-105.51-226.867-108.28a309.177 309.177 0 00-4.637-.039z"
    fill="url(#logo_svg__f)"
  ></path>
  <path
    transform="scale(.26458)"
    d="M57.467 350.182c-6.848.431-9.754 15.716-9.772 55.642 35.619 133.294 157.191 231.473 301.713 231.473a314.27 314.27 0 0053.147-4.512c96.088-20.995 174.424-89.434 209.224-179.545-4.95-49.053-46.366-87.342-96.724-87.342a97.161 97.161 0 00-36.903 7.332c-11.777 8.573-23.851 17.303-36.26 25.999a97.29 97.29 0 00-3.662 4.46c0-.02 0-.041-.01-.062a116.985 116.985 0 01-59.187 36.291c-42.002 24.324-84.692 42.021-124.096 42.021-120.581 0-176.865-133.056-197.47-131.757z"
    fill="url(#logo_svg__g)"
  ></path>
  <path
    transform="scale(.26458)"
    d="M247.633 55.15a240.653 240.653 0 00-73.791 11.553C91.313 122.908 37.112 217.621 37.112 325c0 65.822 20.38 126.875 55.152 177.229 42.558 34.126 96.573 54.554 155.369 54.554 116.084 0 213.575-79.581 240.912-187.16a97.207 97.207 0 00-50.315 34.066c0-.02 0-.041-.01-.062a116.99 116.99 0 01-87.939 39.904c-64.613 0-116.994-52.379-116.994-116.992s52.381-116.992 116.994-116.992a116.992 116.992 0 0185.094 36.836 97.998 97.998 0 0059.748 38.762C483.499 158.215 377.14 55.15 247.633 55.15z"
    fill="url(#logo_svg__h)"
  ></path>
  <path
    transform="scale(.26458)"
    d="M515.055 365.898a97.22 97.22 0 00-76.825 37.791c0-.02 0-.041-.01-.062a116.99 116.99 0 01-105.23 38.63 154.09 154.09 0 00-9.758 53.956c.024 57.044 31.56 109.408 81.97 136.107 69.117-12.467 130.326-47.675 175.602-97.601a97.219 97.219 0 0031.471-71.602c0-53.693-43.527-97.22-97.22-97.219z"
    fill="url(#logo_svg__i)"
  ></path>
  <path
    transform="scale(.26458)"
    d="M349.404 12.703c-117.158 0-219.228 64.528-272.662 159.97.699 95.037 70.482 173.637 161.627 188.061a116.975 116.975 0 01-5.082-34.195c0-64.613 52.381-116.992 116.994-116.992a116.992 116.992 0 0185.094 36.836c.363.505.738.997 1.11 1.494 19.516.111 23.982-12.978 23.982-68.543 0-66.837-34.181-128.903-86.01-165.635a316.497 316.497 0 00-25.049-.996h-.004z"
    fill="url(#logo_svg__j)"
  ></path>
  <path
    d="M161.978 50.134a25.792 25.792 0 01-25.792 25.792 25.792 25.792 0 01-25.792-25.792 25.792 25.792 0 0125.792-25.791 25.792 25.792 0 0125.792 25.791"
    fill="#51023d"
  ></path>
</svg>
